<mxfile host="app.diagrams.net" modified="2021-05-16T01:49:32.181Z" agent="5.0 (Macintosh; Intel Mac OS X 10_15_6) AppleWebKit/605.1.15 (KHTML, like Gecko) Version/14.0.3 Safari/605.1.15" etag="KWSENgsTweG4nOrP29pm" version="14.6.13" type="github">
  <diagram id="86O7ObyHru7bCkvp2EKh" name="Page-1">
    <mxGraphModel dx="1298" dy="784" grid="1" gridSize="10" guides="1" tooltips="1" connect="1" arrows="1" fold="1" page="1" pageScale="1" pageWidth="850" pageHeight="1100" math="0" shadow="0">
      <root>
        <mxCell id="0" />
        <mxCell id="1" parent="0" />
        <mxCell id="fNtgI5EtzNhtgbrsN9j_-8" style="edgeStyle=orthogonalEdgeStyle;rounded=0;orthogonalLoop=1;jettySize=auto;html=1;exitX=1;exitY=0.5;exitDx=0;exitDy=0;entryX=0;entryY=0.5;entryDx=0;entryDy=0;" edge="1" parent="1" source="fNtgI5EtzNhtgbrsN9j_-1" target="fNtgI5EtzNhtgbrsN9j_-2">
          <mxGeometry relative="1" as="geometry" />
        </mxCell>
        <mxCell id="fNtgI5EtzNhtgbrsN9j_-9" style="edgeStyle=orthogonalEdgeStyle;rounded=0;orthogonalLoop=1;jettySize=auto;html=1;exitX=1;exitY=0;exitDx=0;exitDy=0;entryX=0.5;entryY=1;entryDx=0;entryDy=0;entryPerimeter=0;" edge="1" parent="1" source="fNtgI5EtzNhtgbrsN9j_-1" target="fNtgI5EtzNhtgbrsN9j_-4">
          <mxGeometry relative="1" as="geometry" />
        </mxCell>
        <mxCell id="fNtgI5EtzNhtgbrsN9j_-1" value="Channel Connector" style="rounded=0;whiteSpace=wrap;html=1;" vertex="1" parent="1">
          <mxGeometry x="30" y="400" width="120" height="60" as="geometry" />
        </mxCell>
        <mxCell id="fNtgI5EtzNhtgbrsN9j_-15" style="edgeStyle=orthogonalEdgeStyle;rounded=0;orthogonalLoop=1;jettySize=auto;html=1;exitX=1;exitY=0.5;exitDx=0;exitDy=0;entryX=0;entryY=0.5;entryDx=0;entryDy=0;entryPerimeter=0;" edge="1" parent="1" source="fNtgI5EtzNhtgbrsN9j_-2" target="fNtgI5EtzNhtgbrsN9j_-3">
          <mxGeometry relative="1" as="geometry" />
        </mxCell>
        <mxCell id="fNtgI5EtzNhtgbrsN9j_-2" value="Batch Processor" style="rounded=0;whiteSpace=wrap;html=1;" vertex="1" parent="1">
          <mxGeometry x="210" y="400" width="120" height="60" as="geometry" />
        </mxCell>
        <mxCell id="fNtgI5EtzNhtgbrsN9j_-13" style="edgeStyle=orthogonalEdgeStyle;rounded=0;orthogonalLoop=1;jettySize=auto;html=1;exitX=0.91;exitY=0;exitDx=0;exitDy=0;exitPerimeter=0;entryX=0.5;entryY=1;entryDx=0;entryDy=0;" edge="1" parent="1" source="fNtgI5EtzNhtgbrsN9j_-3" target="fNtgI5EtzNhtgbrsN9j_-11">
          <mxGeometry relative="1" as="geometry" />
        </mxCell>
        <mxCell id="fNtgI5EtzNhtgbrsN9j_-25" style="edgeStyle=orthogonalEdgeStyle;rounded=0;orthogonalLoop=1;jettySize=auto;html=1;exitX=1;exitY=0.5;exitDx=0;exitDy=0;exitPerimeter=0;entryX=0;entryY=0.5;entryDx=0;entryDy=0;" edge="1" parent="1" source="fNtgI5EtzNhtgbrsN9j_-3" target="fNtgI5EtzNhtgbrsN9j_-22">
          <mxGeometry relative="1" as="geometry" />
        </mxCell>
        <mxCell id="fNtgI5EtzNhtgbrsN9j_-3" value="Payments Topic" style="strokeWidth=2;html=1;shape=mxgraph.flowchart.direct_data;whiteSpace=wrap;" vertex="1" parent="1">
          <mxGeometry x="400" y="400" width="100" height="60" as="geometry" />
        </mxCell>
        <mxCell id="fNtgI5EtzNhtgbrsN9j_-4" value="S3" style="strokeWidth=2;html=1;shape=mxgraph.flowchart.database;whiteSpace=wrap;" vertex="1" parent="1">
          <mxGeometry x="200" y="290" width="60" height="60" as="geometry" />
        </mxCell>
        <mxCell id="fNtgI5EtzNhtgbrsN9j_-5" value="GET /batch?url=&amp;lt;S3 Link&amp;gt;" style="text;html=1;align=center;verticalAlign=middle;resizable=0;points=[];autosize=1;strokeColor=none;" vertex="1" parent="1">
          <mxGeometry x="190" y="470" width="160" height="20" as="geometry" />
        </mxCell>
        <mxCell id="fNtgI5EtzNhtgbrsN9j_-14" style="edgeStyle=orthogonalEdgeStyle;rounded=0;orthogonalLoop=1;jettySize=auto;html=1;exitX=1;exitY=0.5;exitDx=0;exitDy=0;entryX=0.5;entryY=1;entryDx=0;entryDy=0;entryPerimeter=0;" edge="1" parent="1" source="fNtgI5EtzNhtgbrsN9j_-11" target="fNtgI5EtzNhtgbrsN9j_-12">
          <mxGeometry relative="1" as="geometry" />
        </mxCell>
        <mxCell id="fNtgI5EtzNhtgbrsN9j_-11" value="SQL Consumer" style="rounded=0;whiteSpace=wrap;html=1;" vertex="1" parent="1">
          <mxGeometry x="530" y="260" width="120" height="60" as="geometry" />
        </mxCell>
        <mxCell id="fNtgI5EtzNhtgbrsN9j_-12" value="SQL" style="shape=cylinder3;whiteSpace=wrap;html=1;boundedLbl=1;backgroundOutline=1;size=15;" vertex="1" parent="1">
          <mxGeometry x="710" y="140" width="60" height="80" as="geometry" />
        </mxCell>
        <mxCell id="fNtgI5EtzNhtgbrsN9j_-16" value="Zeebe" style="whiteSpace=wrap;html=1;aspect=fixed;" vertex="1" parent="1">
          <mxGeometry x="850" y="375" width="110" height="110" as="geometry" />
        </mxCell>
        <mxCell id="fNtgI5EtzNhtgbrsN9j_-20" value="Either a single Payments Topic&lt;br&gt;OR&lt;br&gt;Individual payment type Topic" style="text;html=1;align=center;verticalAlign=middle;resizable=0;points=[];autosize=1;strokeColor=none;" vertex="1" parent="1">
          <mxGeometry x="360" y="470" width="180" height="50" as="geometry" />
        </mxCell>
        <mxCell id="fNtgI5EtzNhtgbrsN9j_-21" value="Parse CSV, format data &lt;br&gt;and&lt;br&gt;&amp;nbsp;publish to Kafka" style="text;html=1;align=center;verticalAlign=middle;resizable=0;points=[];autosize=1;strokeColor=none;" vertex="1" parent="1">
          <mxGeometry x="200" y="490" width="140" height="50" as="geometry" />
        </mxCell>
        <mxCell id="fNtgI5EtzNhtgbrsN9j_-26" style="edgeStyle=orthogonalEdgeStyle;rounded=0;orthogonalLoop=1;jettySize=auto;html=1;entryX=0;entryY=0.5;entryDx=0;entryDy=0;" edge="1" parent="1" source="fNtgI5EtzNhtgbrsN9j_-22" target="fNtgI5EtzNhtgbrsN9j_-16">
          <mxGeometry relative="1" as="geometry" />
        </mxCell>
        <mxCell id="fNtgI5EtzNhtgbrsN9j_-22" value="Workflow Initiator" style="rounded=0;whiteSpace=wrap;html=1;" vertex="1" parent="1">
          <mxGeometry x="610" y="400" width="130" height="60" as="geometry" />
        </mxCell>
        <mxCell id="fNtgI5EtzNhtgbrsN9j_-23" value="Either repurpose channel connector&lt;br&gt;to initiate payments&lt;br&gt;OR&lt;br&gt;create a new connector for the&lt;br&gt;sole purpose of initiating payment specific&lt;br&gt;&amp;nbsp;workflows (Mojaloop, GSMA, Afromoney)&lt;br&gt;AND&lt;br&gt;make channel connector publish to this topic" style="text;html=1;align=center;verticalAlign=middle;resizable=0;points=[];autosize=1;strokeColor=none;" vertex="1" parent="1">
          <mxGeometry x="545" y="470" width="250" height="120" as="geometry" />
        </mxCell>
      </root>
    </mxGraphModel>
  </diagram>
</mxfile>
